<svg xmlns="http://www.w3.org/2000/svg" xmlns:xlink="http://www.w3.org/1999/xlink" width="64" height="64" viewBox="0 0 64 64"><defs><linearGradient id="paint" x1="0" x2="1"><stop stop-color="#adb7bb"/><stop offset=".35" stop-color="#fff"/><stop offset=".72" stop-color="#e5e9e9"/><stop offset="1" stop-color="#a9b3b7"/></linearGradient><linearGradient id="glass" x1="0" y1="0" x2="1" y2="1"><stop stop-color="#61767d"/><stop offset="1" stop-color="#25343b"/></linearGradient></defs><g stroke="#25343b" stroke-width="1.2" stroke-linejoin="round"><rect x="16" y="13" width="5" height="11" rx="2" fill="#25343b"/><rect x="43" y="13" width="5" height="11" rx="2" fill="#25343b"/><rect x="16" y="46" width="5" height="10" rx="2" fill="#25343b"/><rect x="43" y="46" width="5" height="10" rx="2" fill="#25343b"/><path d="M22 6Q32 2 42 6L45 19V55Q45 60 40 60H24Q19 60 19 55V19Z" fill="#edf1ef"/><path d="M23 15Q32 12 41 15V24H23Z" fill="#3c525b"/><path d="M23 29H41V54H23Z" fill="#e5e9e9" stroke="#a7b1b5"/><path d="M27 32V50M32 32V50M37 32V50" stroke="#fff"/><path d="M19 22L15 23V26L19 25M45 22L49 23V26L45 25" fill="#d5ddde"/><path d="M24 9H27M37 9H40" stroke="white" stroke-width="2"/><path d="M23 57H26M38 57H41" stroke="#7e5050" stroke-width="2"/></g></svg>